<?xml version="1.0" encoding="utf-8"?>
<!-- Generator: Adobe Illustrator 25.2.3, SVG Export Plug-In . SVG Version: 6.00 Build 0)  -->
<svg version="1.1" id="Capa_1" xmlns="http://www.w3.org/2000/svg" xmlns:xlink="http://www.w3.org/1999/xlink" x="0px" y="0px"
	 viewBox="0 0 793 1117" style="enable-background:new 0 0 793 1117;" xml:space="preserve">
<style type="text/css">
	.st0{fill:#303030;}
</style>
<g>
	<path class="st0" d="M765,89.6c-4.9,0-9.6-0.7-14.1-2.1V55.7h-31.9c-1.4-4.5-2.1-9.2-2.1-14.1v-4.9H452.8v9.9h254.5
		c0.3,3.1,0.8,6.2,1.5,9.2H427.2c-12.6,0-23.1,9.6-23.8,21.8c-0.4,7,2.3,13.8,7.5,18.6c5.2,4.8,12.2,6.9,19.2,5.9
		c8.8-1.3,16-7.6,18.7-15.9h223.4c0.5,0.8,1.5,1.4,2.6,1.4c0.3,0,0.7-0.1,1-0.2c1.3,1,3,1.7,4.8,1.7c1.8,0,3.5-0.6,4.8-1.7
		c0.3,0.1,0.6,0.2,1,0.2c1,0,1.8-0.5,2.4-1.1c14.6,3.6,21.6-5.2,21.6-5.2s-7-8.8-21.6-5.2c-0.6-0.7-1.4-1.1-2.4-1.1
		c-0.3,0-0.7,0.1-1,0.2c-1.3-1-3-1.7-4.8-1.7c-1.8,0-3.5,0.6-4.8,1.7c-0.3-0.1-0.6-0.2-1-0.2c-1.1,0-2,0.6-2.6,1.4H449.6
		c-0.1-1-0.3-2.1-0.6-3.1c-0.7-2.6-3.4-4.2-6-3.5c-2.6,0.7-4.2,3.4-3.5,6c0.5,1.8,0.6,3.6,0.3,5.5c-0.9,5.7-5.5,10.3-11.2,11.2
		c-4.1,0.6-8.1-0.6-11.1-3.4c-3-2.7-4.6-6.7-4.3-10.7c0.4-7,6.6-12.6,14-12.6h285.1c5.8,12.7,16.1,23,28.8,28.8v929.5
		c-12.6,5.8-22.8,16-28.5,28.6H427.2c-7.4,0-13.6-5.5-14-12.6c-0.2-4.1,1.3-8,4.3-10.7c3-2.7,7-4,11.1-3.4
		c5.7,0.8,10.3,5.4,11.2,11.2c0.3,1.9,0.2,3.7-0.3,5.5c-0.7,2.6,0.9,5.3,3.5,6c2.6,0.7,5.3-0.9,6-3.5c0.3-1,0.4-2.1,0.6-3.1h222.5
		c0.5,0.8,1.5,1.4,2.6,1.4c0.3,0,0.7-0.1,1-0.2c1.3,1,3,1.7,4.8,1.7c1.8,0,3.5-0.6,4.8-1.7c0.3,0.1,0.6,0.2,1,0.2
		c1,0,1.8-0.5,2.4-1.1c14.6,3.6,21.6-5.2,21.6-5.2s-7-8.8-21.6-5.2c-0.6-0.7-1.4-1.1-2.4-1.1c-0.3,0-0.7,0.1-1,0.2
		c-1.3-1-3-1.7-4.8-1.7c-1.8,0-3.5,0.6-4.8,1.7c-0.3-0.1-0.6-0.2-1-0.2c-1.1,0-2,0.6-2.6,1.4H448.7c-2.6-8.3-9.9-14.6-18.7-15.9
		c-7-1-14,1.1-19.2,5.9c-5.2,4.8-7.9,11.5-7.5,18.6c0.7,12.2,11.2,21.8,23.8,21.8h281.9c-0.7,3-1.3,6-1.5,9.2H452.8v9.9h264.4v-4.9
		c0-4.9,0.7-9.6,2.1-14.1h31.6v-31.8c4.5-1.4,9.2-2.2,14.1-2.2l4.9,0V89.6H765z M723.4,65.5h17.7v17.7
		C733.7,79,727.6,72.9,723.4,65.5z M741.1,1052.5h-17.4c4.2-7.2,10.2-13.3,17.4-17.5V1052.5z M760.1,1018.7
		c-3.1,0.3-6.2,0.8-9.2,1.6V97.8c3,0.7,6,1.3,9.2,1.5V1018.7z"/>
	<path class="st0" d="M84.1,1062.3h281.6c12.6,0,23.1-9.6,23.8-21.8c0.4-7-2.3-13.8-7.5-18.6c-5.2-4.8-12.2-6.9-19.2-5.9
		c-8.8,1.3-16,7.6-18.7,15.9H120.7c-0.5-0.8-1.5-1.4-2.6-1.4c-0.3,0-0.7,0.1-1,0.2c-1.3-1-3-1.7-4.8-1.7c-1.8,0-3.5,0.6-4.8,1.7
		c-0.3-0.1-0.6-0.2-1-0.2c-1,0-1.8,0.5-2.4,1.1c-14.6-3.6-21.6,5.2-21.6,5.2s7,8.8,21.6,5.2c0.6,0.7,1.4,1.1,2.4,1.1
		c0.3,0,0.7-0.1,1-0.2c1.3,1,3,1.7,4.8,1.7c1.8,0,3.5-0.6,4.8-1.7c0.3,0.1,0.6,0.2,1,0.2c1.1,0,2-0.6,2.6-1.4h222.5
		c0.1,1,0.3,2.1,0.6,3.1c0.7,2.6,3.4,4.2,6,3.5c2.6-0.7,4.2-3.4,3.5-6c-0.5-1.8-0.6-3.6-0.3-5.5c0.9-5.7,5.5-10.3,11.2-11.2
		c4.1-0.6,8.1,0.6,11.1,3.4c3,2.7,4.6,6.7,4.3,10.7c-0.4,7-6.6,12.6-14,12.6H80.6c-5.8-12.7-16.1-23-28.8-28.8V94.2
		c12.6-5.8,22.8-16,28.6-28.7h285.4c7.4,0,13.6,5.5,14,12.6c0.2,4.1-1.3,8-4.3,10.7c-3,2.7-7,4-11.1,3.4
		c-5.7-0.8-10.3-5.4-11.2-11.2c-0.3-1.9-0.2-3.7,0.3-5.5c0.7-2.6-0.9-5.3-3.5-6c-2.6-0.7-5.3,0.9-6,3.5c-0.3,1-0.4,2.1-0.6,3.1
		H120.7c-0.5-0.8-1.5-1.4-2.6-1.4c-0.3,0-0.7,0.1-1,0.2c-1.3-1-3-1.7-4.8-1.7c-1.8,0-3.5,0.6-4.8,1.7c-0.3-0.1-0.6-0.2-1-0.2
		c-1,0-1.8,0.5-2.4,1.1c-14.6-3.6-21.6,5.2-21.6,5.2s7,8.8,21.6,5.2c0.6,0.7,1.4,1.1,2.4,1.1c0.3,0,0.7-0.1,1-0.2
		c1.3,1,3,1.7,4.8,1.7c1.8,0,3.5-0.6,4.8-1.7c0.3,0.1,0.6,0.2,1,0.2c1.1,0,2-0.6,2.6-1.4h223.4c2.6,8.3,9.9,14.6,18.7,15.9
		c7,1,14-1.1,19.2-5.9c5.2-4.8,7.9-11.5,7.5-18.6c-0.7-12.2-11.2-21.8-23.8-21.8H83.8c0.7-3,1.3-6,1.5-9.2h254.8v-9.9H75.7v4.9
		c0,4.9-0.7,9.6-2.1,14.1H41.9v31.8c-4.4,1.4-9.1,2.1-14,2.2l-4.9,0v938.7l4.9,0c4.9,0,9.5,0.7,14,2.1v31.9h31.9
		c1.4,4.5,2.1,9.2,2.1,14.1v4.9h264.2v-9.9H85.6C85.3,1068.3,84.8,1065.3,84.1,1062.3z M51.8,65.5h17.5C65.1,72.8,59,78.9,51.8,83.1
		V65.5z M32.9,1018.7V99.3c3.1-0.3,6.1-0.8,9-1.6v922.6C39,1019.5,36,1019,32.9,1018.7z M51.8,1052.5v-17.7
		c7.4,4.2,13.5,10.4,17.7,17.7H51.8z"/>
	<path class="st0" d="M396,60.2c0.2,0.2,0.4,0.3,0.4,0.3c0,0,0.1,0.1,0.1,0.1v0l0,0l0,0v0c0,0,0.1,0,0.1-0.1c0.1,0,0.2-0.2,0.4-0.3
		c3.2-2.5,23.8-17.4,41.2-14.3c0,0-2.7-8.4-13.2-8.9c0,0-1.9-6.2-12.2-5.3c-1.5-13.7-16.3-24.4-16.3-24.4s-14.8,10.8-16.3,24.4
		c-10.4-0.9-12.2,5.3-12.2,5.3c-10.5,0.5-13.2,8.9-13.2,8.9C372.2,42.8,392.8,57.8,396,60.2z"/>
	<path class="st0" d="M397,1057.8c-0.2-0.2-0.4-0.3-0.4-0.3c0,0-0.1-0.1-0.1-0.1v0l0,0l0,0v0c0,0-0.1,0-0.1,0.1
		c-0.1,0-0.2,0.2-0.4,0.3c-3.2,2.5-23.8,17.4-41.2,14.3c0,0,2.7,8.4,13.2,8.9c0,0,1.9,6.2,12.2,5.3c1.5,13.7,16.3,24.4,16.3,24.4
		s14.8-10.8,16.3-24.4c10.3,0.9,12.2-5.3,12.2-5.3c10.5-0.5,13.2-8.9,13.2-8.9C420.8,1075.2,400.2,1060.2,397,1057.8z"/>
</g>
</svg>
