<?xml version="1.0" encoding="utf-8"?>
<!-- Generator: Adobe Illustrator 25.2.3, SVG Export Plug-In . SVG Version: 6.00 Build 0)  -->
<svg version="1.1" id="Capa_1" xmlns="http://www.w3.org/2000/svg" xmlns:xlink="http://www.w3.org/1999/xlink" x="0px" y="0px"
	 viewBox="0 0 1117 793" style="enable-background:new 0 0 1117 793;" xml:space="preserve">
<style type="text/css">
	.st0{fill:#303030;}
</style>
<g>
	<path class="st0" d="M89.5,27.6c0,4.9-0.7,9.6-2.1,14.1H55.5v31.9c-4.5,1.4-9.2,2.1-14.1,2.1h-4.9v264.2h9.9V85.3
		c3.1-0.3,6.2-0.8,9.2-1.5v281.7c0,12.6,9.6,23.1,21.8,23.8c7,0.4,13.8-2.3,18.6-7.5c4.8-5.2,6.9-12.2,5.9-19.2
		c-1.3-8.8-7.6-16-15.9-18.7V120.5c0.8-0.5,1.4-1.5,1.4-2.6c0-0.3-0.1-0.7-0.2-1c1-1.3,1.7-3,1.7-4.8c0-1.8-0.6-3.5-1.7-4.8
		c0.1-0.3,0.2-0.6,0.2-1c0-1-0.5-1.8-1.1-2.4c3.6-14.6-5.2-21.6-5.2-21.6s-8.8,7-5.2,21.6c-0.7,0.6-1.1,1.4-1.1,2.4
		c0,0.3,0.1,0.7,0.2,1c-1,1.3-1.7,3-1.7,4.8c0,1.8,0.6,3.5,1.7,4.8c-0.1,0.3-0.2,0.6-0.2,1c0,1.1,0.6,2,1.4,2.6V343
		c-1,0.1-2.1,0.3-3.1,0.6c-2.6,0.7-4.2,3.4-3.5,6c0.7,2.6,3.4,4.2,6,3.5c1.8-0.5,3.6-0.6,5.5-0.3c5.7,0.9,10.3,5.5,11.2,11.2
		c0.6,4.1-0.6,8.1-3.4,11.1c-2.7,3-6.7,4.6-10.7,4.3c-7-0.4-12.6-6.6-12.6-14V80.3c12.7-5.8,23-16.1,28.8-28.8h929.5
		c5.8,12.6,16,22.8,28.6,28.5v285.4c0,7.4-5.5,13.6-12.6,14c-4.1,0.2-8-1.3-10.7-4.3c-2.7-3-4-7-3.4-11.1
		c0.8-5.7,5.4-10.3,11.2-11.2c1.9-0.3,3.7-0.2,5.5,0.3c2.6,0.7,5.3-0.9,6-3.5c0.7-2.6-0.9-5.3-3.5-6c-1-0.3-2.1-0.4-3.1-0.6V120.5
		c0.8-0.5,1.4-1.5,1.4-2.6c0-0.3-0.1-0.7-0.2-1c1-1.3,1.7-3,1.7-4.8c0-1.8-0.6-3.5-1.7-4.8c0.1-0.3,0.2-0.6,0.2-1
		c0-1-0.5-1.8-1.1-2.4c3.6-14.6-5.2-21.6-5.2-21.6s-8.8,7-5.2,21.6c-0.7,0.6-1.1,1.4-1.1,2.4c0,0.3,0.1,0.7,0.2,1
		c-1,1.3-1.7,3-1.7,4.8c0,1.8,0.6,3.5,1.7,4.8c-0.1,0.3-0.2,0.6-0.2,1c0,1.1,0.6,2,1.4,2.6v223.4c-8.3,2.6-14.6,9.9-15.9,18.7
		c-1,7,1.1,14,5.9,19.2c4.8,5.2,11.5,7.9,18.6,7.5c12.2-0.7,21.8-11.2,21.8-23.8V83.5c3,0.7,6,1.3,9.2,1.5v254.7h9.9V75.4h-4.9
		c-4.9,0-9.6-0.7-14.1-2.1V41.7h-31.8c-1.4-4.5-2.2-9.2-2.2-14.1l0-4.9H89.5V27.6z M65.4,69.2V51.5h17.7
		C78.8,58.9,72.7,65,65.4,69.2z M1052.3,51.5V69c-7.2-4.2-13.3-10.2-17.5-17.4H1052.3z M1018.6,32.5c0.3,3.1,0.8,6.2,1.6,9.2H97.6
		c0.7-3,1.3-6,1.5-9.2H1018.6z"/>
	<path class="st0" d="M1062.2,708.6V426.9c0-12.6-9.6-23.1-21.8-23.8c-7-0.4-13.8,2.3-18.6,7.5c-4.8,5.2-6.9,12.2-5.9,19.2
		c1.3,8.8,7.6,16,15.9,18.7v223.4c-0.8,0.5-1.4,1.5-1.4,2.6c0,0.3,0.1,0.7,0.2,1c-1,1.3-1.7,3-1.7,4.8c0,1.8,0.6,3.5,1.7,4.8
		c-0.1,0.3-0.2,0.6-0.2,1c0,1,0.5,1.8,1.1,2.4c-3.6,14.6,5.2,21.6,5.2,21.6s8.8-7,5.2-21.6c0.7-0.6,1.1-1.4,1.1-2.4
		c0-0.3-0.1-0.7-0.2-1c1-1.3,1.7-3,1.7-4.8c0-1.8-0.6-3.5-1.7-4.8c0.1-0.3,0.2-0.6,0.2-1c0-1.1-0.6-2-1.4-2.6V449.4
		c1-0.1,2.1-0.3,3.1-0.6c2.6-0.7,4.2-3.4,3.5-6c-0.7-2.6-3.4-4.2-6-3.5c-1.8,0.5-3.6,0.6-5.5,0.3c-5.7-0.9-10.3-5.5-11.2-11.2
		c-0.6-4.1,0.6-8.1,3.4-11.1c2.7-3,6.7-4.6,10.7-4.3c7,0.4,12.6,6.6,12.6,14V712c-12.7,5.8-23,16.1-28.8,28.8H94
		c-5.8-12.6-16-22.8-28.7-28.6V426.9c0-7.4,5.5-13.6,12.6-14c4.1-0.2,8,1.3,10.7,4.3c2.7,3,4,7,3.4,11.1
		c-0.8,5.7-5.4,10.3-11.2,11.2c-1.9,0.3-3.7,0.2-5.5-0.3c-2.6-0.7-5.3,0.9-6,3.5c-0.7,2.6,0.9,5.3,3.5,6c1,0.3,2.1,0.4,3.1,0.6
		v222.5c-0.8,0.5-1.4,1.5-1.4,2.6c0,0.3,0.1,0.7,0.2,1c-1,1.3-1.7,3-1.7,4.8c0,1.8,0.6,3.5,1.7,4.8c-0.1,0.3-0.2,0.6-0.2,1
		c0,1,0.5,1.8,1.1,2.4C72.1,703,80.9,710,80.9,710s8.8-7,5.2-21.6c0.7-0.6,1.1-1.4,1.1-2.4c0-0.3-0.1-0.7-0.2-1c1-1.3,1.7-3,1.7-4.8
		c0-1.8-0.6-3.5-1.7-4.8c0.1-0.3,0.2-0.6,0.2-1c0-1.1-0.6-2-1.4-2.6V448.5c8.3-2.6,14.6-9.9,15.9-18.7c1-7-1.1-14-5.9-19.2
		c-4.8-5.2-11.5-7.9-18.6-7.5c-12.2,0.7-21.8,11.2-21.8,23.8v281.9c-3-0.7-6-1.3-9.2-1.5V452.4h-9.9v264.5h4.9
		c4.9,0,9.6,0.7,14.1,2.1v31.7h31.8c1.4,4.4,2.1,9.1,2.2,14l0,4.9h938.7l0-4.9c0-4.9,0.7-9.5,2.1-14h31.9v-31.9
		c4.5-1.4,9.2-2.1,14.1-2.1h4.9V452.4h-9.9V707C1068.2,707.3,1065.2,707.8,1062.2,708.6z M65.4,740.8v-17.5
		c7.3,4.2,13.3,10.2,17.6,17.5H65.4z M1018.6,759.7H99.1c-0.3-3.1-0.8-6.1-1.6-9h922.6C1019.4,753.6,1018.8,756.6,1018.6,759.7z
		 M1052.3,740.8h-17.7c4.2-7.4,10.4-13.5,17.7-17.7V740.8z"/>
	<path class="st0" d="M60.1,396.6c0.2-0.2,0.3-0.4,0.3-0.4c0,0,0.1-0.1,0.1-0.1h0l0,0l0,0h0c0,0,0-0.1-0.1-0.1
		c0-0.1-0.2-0.2-0.3-0.4c-2.5-3.2-17.4-23.8-14.3-41.2c0,0-8.4,2.7-8.9,13.2c0,0-6.2,1.9-5.3,12.2C18,381.3,7.2,396.1,7.2,396.1
		S18,411,31.7,412.5c-0.9,10.4,5.3,12.2,5.3,12.2c0.5,10.5,8.9,13.2,8.9,13.2C42.7,420.4,57.6,399.9,60.1,396.6z"/>
	<path class="st0" d="M1057.6,395.6c-0.2,0.2-0.3,0.4-0.3,0.4c0,0-0.1,0.1-0.1,0.1h0l0,0l0,0h0c0,0,0,0.1,0.1,0.1
		c0,0.1,0.2,0.2,0.3,0.4c2.5,3.2,17.4,23.8,14.3,41.2c0,0,8.4-2.7,8.9-13.2c0,0,6.2-1.9,5.3-12.2c13.7-1.5,24.4-16.3,24.4-16.3
		s-10.8-14.8-24.4-16.3c0.9-10.3-5.3-12.2-5.3-12.2c-0.5-10.5-8.9-13.2-8.9-13.2C1075,371.8,1060.1,392.4,1057.6,395.6z"/>
</g>
</svg>
