<svg xmlns="http://www.w3.org/2000/svg" viewBox="0 0 172.16 8.67"><defs><style>.cls-1{fill:none;stroke:#000;stroke-linecap:round;stroke-linejoin:round;stroke-width:1.54px;}</style></defs><g id="Capa_2" data-name="Capa 2"><g id="Capa_1-2" data-name="Capa 1"><path d="M172.16,4.34C165.9,2.63,163.85,0,160.22,0c-4,0-4.67,4.34-4.67,4.34Z"/><path d="M172.16,4.34c-6.26,1.7-8.31,4.33-11.94,4.33-4,0-4.67-4.33-4.67-4.33Z"/><path d="M16.61,4.34C10.35,2.63,8.3,0,4.67,0,.69,0,0,4.34,0,4.34Z"/><path d="M16.61,4.34C10.35,6,8.3,8.67,4.67,8.67.69,8.67,0,4.34,0,4.34Z"/><line class="cls-1" x1="7.83" y1="4.34" x2="155.55" y2="4.34"/></g></g></svg>