<svg xmlns="http://www.w3.org/2000/svg" viewBox="0 0 172.16 8.67"><defs><style>.cls-1{fill:none;stroke:#000;stroke-linecap:round;stroke-linejoin:round;stroke-width:1.54px;}</style></defs><g id="Capa_2" data-name="Capa 2"><g id="Capa_1-2" data-name="Capa 1"><path d="M0,4.34C6.26,2.63,8.3,0,11.94,0c4,0,4.67,4.34,4.67,4.34Z"/><path d="M0,4.34C6.26,6,8.3,8.67,11.94,8.67c4,0,4.67-4.33,4.67-4.33Z"/><path d="M155.55,4.34C161.81,2.63,163.85,0,167.48,0c4,0,4.68,4.34,4.68,4.34Z"/><path d="M155.55,4.34c6.26,1.7,8.3,4.33,11.93,4.33,4,0,4.68-4.33,4.68-4.33Z"/><line class="cls-1" x1="16.61" y1="4.34" x2="161.4" y2="4.34"/></g></g></svg>